<?xml version="1.0" encoding="utf-8"?> <!-- Generator: IcoMoon.io --> <!DOCTYPE svg PUBLIC "-//W3C//DTD SVG 1.1//EN" "http://www.w3.org/Graphics/SVG/1.1/DTD/svg11.dtd"> <svg width="32" height="32" viewBox="0 0 32 32" xmlns="http://www.w3.org/2000/svg" xmlns:xlink="http://www.w3.org/1999/xlink" fill="#1f5f45"><g><path d="M 16,0C 7.164,0,0,7.164,0,16s 7.164,16, 16,16s 16-7.164, 16-16S 24.836,0, 16,0z M 22,20l0-2 l-4,0 l0,4 l 2,0 l-4,4 l-4-4l 2,0 l0-4 l-4,0 l0,2 l-4-4l 4-4l0,2 l 4,0 l0-4 l-2,0 l 4-4l 4,4l-2,0 l0,4 l 4,0 l0-2 l 4,4L 22,20z"></path></g></svg>