<?xml version="1.0" encoding="utf-8"?> <!-- Generator: IcoMoon.io --> <!DOCTYPE svg PUBLIC "-//W3C//DTD SVG 1.1//EN" "http://www.w3.org/Graphics/SVG/1.1/DTD/svg11.dtd"> <svg width="200.86720275878906" height="200.86680603027344" viewBox="0 0 200.86720275878906 200.86680603027344" xmlns="http://www.w3.org/2000/svg" xmlns:xlink="http://www.w3.org/1999/xlink" fill="#b4b4b4"><g><path d="M 198.176,160.676c-0.001-0.001-0.002-0.002-0.002-0.002L 137.501,100l 60.673-60.674c 0.001-0.001, 0.002-0.001, 0.002-0.002 c 0.653-0.654, 1.125-1.417, 1.428-2.23c 0.829-2.222, 0.356-4.821-1.43-6.607L 169.512,1.826c-1.787-1.786-4.385-2.259-6.607-1.43 c-0.813,0.303-1.576,0.775-2.23,1.428c0,0.001-0.001,0.001-0.002,0.002L 100,62.5L 39.327,1.826 c-0.001-0.001-0.001-0.001-0.002-0.002c-0.654-0.653-1.417-1.125-2.229-1.428c-2.223-0.83-4.821-0.357-6.607,1.43L 1.827,30.488 c-1.787,1.787-2.259,4.385-1.43,6.607c 0.303,0.813, 0.775,1.577, 1.428,2.23c 0.001,0, 0.001,0.001, 0.002,0.002L 62.5,100 L 1.827,160.674c-0,0.001-0.001,0.001-0.002,0.002c-0.653,0.654-1.125,1.417-1.429,2.229c-0.83,2.222-0.357,4.821, 1.43,6.607 l 28.662,28.661c 1.787,1.787, 4.385,2.259, 6.607,1.43c 0.813-0.303, 1.576-0.775, 2.23-1.428c 0-0.001, 0.001-0.001, 0.002-0.002 l 60.673-60.674l 60.673,60.674c 0.001,0, 0.002,0.001, 0.002,0.002c 0.654,0.653, 1.417,1.125, 2.229,1.429 c 2.222,0.829, 4.821,0.357, 6.607-1.43l 28.661-28.662c 1.787-1.787, 2.26-4.386, 1.43-6.607 C 199.302,162.093, 198.829,161.329, 198.176,160.676z"></path></g></svg>