<?xml version="1.0" encoding="utf-8"?> <!-- Generator: IcoMoon.io --> <!DOCTYPE svg PUBLIC "-//W3C//DTD SVG 1.1//EN" "http://www.w3.org/Graphics/SVG/1.1/DTD/svg11.dtd"> <svg width="200.00001525878906" height="200.00001525878906" viewBox="0 0 200.00001525878906 200.00001525878906" xmlns="http://www.w3.org/2000/svg" xmlns:xlink="http://www.w3.org/1999/xlink" fill="#b4b4b4"><g><path d="M 166.669,0L 33.337,0 C 15.002,0,0,15.003,0,33.337l0,133.325 C0,185.010, 15.002,200, 33.337,200l 133.332-0 c 18.335,0, 33.331-14.989, 33.331-33.337L 200,33.337 C 200,15.003, 185.004,0, 166.669,0z M 170.037,100L 137.5,100 l0,87.5 l-37.5,0 L 100,100 l-18.071,0 l0-28.626 L 100,71.374 l0-18.591 C 100,27.521, 110.897,12.5, 140.6,12.5l 34.227,0 l0,30.971 l-27.955,0 c-8.297-0.014-9.327,4.327-9.327,12.405L 137.5,71.374l 37.5,0 L 170.037,100z"></path></g></svg>