<?xml version="1.0" encoding="utf-8"?> <!-- Generator: IcoMoon.io --> <!DOCTYPE svg PUBLIC "-//W3C//DTD SVG 1.1//EN" "http://www.w3.org/Graphics/SVG/1.1/DTD/svg11.dtd"> <svg width="200.00001525878906" height="200.00001525878906" viewBox="0 0 200.00001525878906 200.00001525878906" xmlns="http://www.w3.org/2000/svg" xmlns:xlink="http://www.w3.org/1999/xlink" fill="#b4b4b4"><g><path d="M 100,0C 44.771,0,0,44.771,0,100s 44.771,100, 100,100s 100-44.771, 100-100S 155.229,0, 100,0z M 100,181.25 c-44.873,0-81.25-36.377-81.25-81.25S 55.127,18.75, 100,18.75s 81.25,36.377, 81.25,81.25S 144.873,181.25, 100,181.25zM 87.5,50L 112.5,50L 112.5,75L 87.5,75zM 125,150L 75,150L 75,137.5L 87.5,137.5L 87.5,100L 75,100L 75,87.5L 112.5,87.5L 112.5,137.5L 125,137.5 z"></path></g></svg>