<?xml version="1.0" encoding="utf-8"?> <!-- Generator: IcoMoon.io --> <!DOCTYPE svg PUBLIC "-//W3C//DTD SVG 1.1//EN" "http://www.w3.org/Graphics/SVG/1.1/DTD/svg11.dtd"> <svg width="200.00001525878906" height="200.00001525878906" viewBox="0 0 200.00001525878906 200.00001525878906" xmlns="http://www.w3.org/2000/svg" xmlns:xlink="http://www.w3.org/1999/xlink" fill="#b4b4b4"><g><path d="M 166.668,0L 33.337,0 C 15.002,0,0,15.002,0,33.338l0,133.325 C0,185.010, 15.002,200, 33.337,200l 133.331,0 C 185.004,200, 200,185.010, 200,166.662L 200,33.338 C 200,15.002, 185.004,0, 166.668,0z M 166.668,25c 1.56,0, 3.036,0.456, 4.301,1.239 L 100,84.911L 29.032,26.239C 30.298,25.456, 31.775,25, 33.337,25L 166.668,25 z M 33.337,175c-0.376,0-0.746-0.029-1.11-0.080 l 44.068-61.126l-5.714-5.714L 25,153.661L 25,34.298 L 100,125L 175,34.298l0,119.362 L 129.42,108.080l-5.714,5.714l 44.068,61.127 c-0.363,0.051-0.732,0.079-1.106,0.079L 33.337,175 z"></path></g></svg>