<?xml version="1.0" encoding="utf-8"?> <!-- Generator: IcoMoon.io --> <!DOCTYPE svg PUBLIC "-//W3C//DTD SVG 1.1//EN" "http://www.w3.org/Graphics/SVG/1.1/DTD/svg11.dtd"> <svg width="202.1121368408203" height="202.11212158203125" viewBox="0 0 202.1121368408203 202.11212158203125" xmlns="http://www.w3.org/2000/svg" xmlns:xlink="http://www.w3.org/1999/xlink" fill="#b4b4b4"><g><path d="M 193.801,170.195L 146.428,129.903c-4.897-4.407-10.135-6.431-14.366-6.236C 143.245,110.568, 150,93.574, 150,75 C 150,33.579, 116.421,0, 75,0C 33.579,0,0,33.579,0,75c0,41.421, 33.579,75, 75,75c 18.574,0, 35.568-6.755, 48.667-17.938 c-0.195,4.231, 1.828,9.468, 6.236,14.366l 40.292,47.373c 6.899,7.665, 18.168,8.311, 25.043,1.437S 201.466,177.093, 193.801,170.195z M 75,125c-27.614,0-50-22.386-50-50S 47.386,25, 75,25s 50,22.386, 50,50S 102.614,125, 75,125z"></path></g></svg>