<?xml version="1.0" encoding="utf-8"?> <!-- Generator: IcoMoon.io --> <!DOCTYPE svg PUBLIC "-//W3C//DTD SVG 1.1//EN" "http://www.w3.org/Graphics/SVG/1.1/DTD/svg11.dtd"> <svg width="32" height="32" viewBox="0 0 32 32" xmlns="http://www.w3.org/2000/svg" xmlns:xlink="http://www.w3.org/1999/xlink" fill="#c4c4c4"><g><path d="M 6.857,24q0,0.464 -0.339,0.804t-0.804,0.339t-0.804-0.339t-0.339-0.804t 0.339-0.804t 0.804-0.339t 0.804,0.339t 0.339,0.804zM 25.143,25.089q0,2.161 -1.304,3.393t-3.464,1.232l-15.607,0 q-2.161,0 -3.464-1.232t-1.304-3.393q0-1.214 0.098-2.339t 0.429-2.464t 0.848-2.366t 1.446-1.839t 2.143-1.080q-0.393,0.929 -0.393,2.143l0,3.625 q-1.036,0.357 -1.661,1.25t-0.625,1.982q0,1.429 1,2.429t 2.429,1 t 2.429-1t 1-2.429q0-1.089 -0.634-1.982t-1.652-1.25l0-3.625 q0-1.107 0.446-1.661q 2.357,1.857 5.268,1.857t 5.268-1.857q 0.446,0.554 0.446,1.661l0,1.143 q-1.893,0 -3.232,1.339t-1.339,3.232l0,1.589 q-0.571,0.518 -0.571,1.268q0,0.714 0.5,1.214t 1.214,0.5t 1.214-0.5t 0.5-1.214q0-0.75 -0.571-1.268l0-1.589 q0-0.929 0.679-1.607t 1.607-0.679t 1.607,0.679t 0.679,1.607l0,1.589 q-0.571,0.518 -0.571,1.268q0,0.714 0.5,1.214 t 1.214,0.5t 1.214-0.5t 0.5-1.214q0-0.75 -0.571-1.268l0-1.589 q0-1.214 -0.616-2.277t-1.67-1.67q0-0.179 0.009-0.759t0-0.857t-0.045-0.741t-0.125-0.839t-0.232-0.714q 1.214,0.268 2.143,1.080t 1.446,1.839t 0.848,2.366t 0.429,2.464t 0.098,2.339zM 19.429,9.143q0,2.839 -2.009,4.848t-4.848,2.009t-4.848-2.009t-2.009-4.848t 2.009-4.848t 4.848-2.009 t 4.848,2.009t 2.009,4.848z"></path></g></svg>